<?xml version="1.0" standalone="no"?>
<!DOCTYPE svg PUBLIC "-//W3C//DTD SVG 20010904//EN"
 "http://www.w3.org/TR/2001/REC-SVG-20010904/DTD/svg10.dtd">
<svg version="1.0" xmlns="http://www.w3.org/2000/svg"
 width="670.741605pt" height="804.415236pt" viewBox="0 0 670.741605 804.415236"
 preserveAspectRatio="xMidYMid meet">
<metadata>
Created by potrace 1.12, written by Peter Selinger 2001-2015
</metadata>
<g transform="translate(-169.032010,899.449628) scale(0.100000,-0.100000)"
fill="#000000" stroke="none">
<path d="M5785 8989 c-455 -29 -811 -159 -1069 -389 -364 -324 -566 -740 -617
-1270 -24 -252 19 -554 108 -760 46 -105 68 -141 128 -208 26 -29 46 -54 44
-56 -2 -1 -26 -11 -54 -21 -99 -36 -171 -100 -198 -174 -12 -33 -12 -33 -62
-27 -27 4 -75 11 -105 16 -89 14 -323 11 -439 -6 -215 -31 -447 -104 -608
-190 -66 -35 -93 -44 -133 -44 -91 0 -185 -62 -234 -155 -23 -42 -27 -61 -25
-120 2 -67 0 -74 -44 -148 -87 -146 -123 -276 -137 -488 -17 -270 -13 -253
-73 -288 -71 -40 -115 -85 -139 -140 -26 -60 -35 -160 -18 -211 12 -37 11 -42
-13 -77 -97 -143 -127 -220 -134 -348 -4 -85 -1 -114 19 -190 23 -85 23 -95
11 -180 -14 -96 -5 -207 21 -284 21 -56 79 -142 122 -178 73 -61 120 -78 214
-78 73 0 94 4 148 29 59 27 66 28 115 18 67 -15 133 1 225 57 37 22 85 44 107
50 82 21 175 100 175 148 0 27 -11 63 -19 63 -4 0 -31 -22 -59 -50 -57 -55
-79 -64 -67 -27 4 12 9 65 12 118 l5 97 39 21 c34 20 38 26 33 49 -4 15 -9 29
-11 32 -6 7 -159 -76 -203 -110 -110 -84 -183 -101 -227 -53 -22 23 -24 33
-19 71 15 111 187 280 339 333 20 7 37 17 37 21 0 15 -91 8 -147 -12 -31 -11
-58 -18 -59 -17 -2 2 3 25 11 52 19 60 19 107 1 166 l-14 45 45 13 c63 16 143
52 143 62 0 5 5 9 12 9 6 0 21 9 33 20 11 11 39 26 60 33 44 15 42 12 66 154
15 87 1 170 -37 220 -13 17 -24 34 -24 37 0 3 21 6 48 6 26 0 54 6 63 13 31
23 77 112 99 192 13 44 33 89 44 101 12 11 46 74 75 140 55 121 91 187 91 169
0 -6 -27 -71 -61 -145 -69 -154 -176 -465 -214 -625 -9 -38 -20 -86 -25 -105
-24 -95 -60 -342 -71 -480 -17 -223 0 -580 32 -677 7 -22 25 -43 51 -59 22
-14 47 -39 56 -56 31 -55 103 -148 117 -148 7 0 42 13 76 30 187 88 398 77
539 -29 43 -32 61 -39 115 -44 35 -3 83 -16 105 -27 53 -27 124 -101 151 -157
11 -23 33 -51 47 -62 70 -49 221 -107 352 -135 14 -3 -6 -3 -43 -1 -49 3 -96
15 -166 44 -137 55 -176 81 -206 141 -33 65 -89 126 -137 151 -21 11 -69 23
-106 26 -57 5 -76 12 -127 48 -94 66 -142 80 -270 80 -89 0 -123 -5 -175 -23
-111 -39 -198 -98 -300 -201 -195 -196 -311 -432 -345 -701 -8 -69 -20 -153
-25 -186 -6 -34 -10 -72 -10 -85 0 -44 -12 -52 -58 -38 l-41 12 6 71 c5 67 4
73 -21 104 -40 47 -90 59 -156 37 -39 -13 -57 -26 -72 -51 -23 -39 -23 -39
-71 -19 -61 25 -111 20 -152 -17 -39 -34 -75 -95 -75 -127 0 -11 14 -40 30
-65 25 -36 28 -49 21 -69 -8 -20 -18 -25 -59 -30 -63 -7 -83 -20 -116 -71 -47
-73 -32 -173 37 -233 61 -54 174 -54 212 0 17 25 18 24 33 -29 31 -109 157
-155 269 -99 103 52 135 107 134 230 0 80 0 81 33 107 l33 27 7 -61 c3 -34 6
-78 6 -98 0 -39 19 -69 58 -89 20 -11 23 -18 18 -45 -8 -44 19 -77 91 -112
103 -48 312 -96 543 -124 52 -6 131 -19 175 -28 68 -15 134 -17 450 -15 487 3
742 20 1062 69 92 14 108 14 145 1 24 -8 82 -22 130 -31 78 -14 91 -14 140 0
60 18 138 55 138 66 0 4 -20 21 -45 39 -41 30 -56 49 -37 49 10 0 33 38 43 73
7 25 4 34 -21 58 -16 17 -39 29 -54 29 -14 0 -43 6 -63 14 -100 37 -206 66
-288 80 -272 46 -483 70 -522 60 -18 -5 -24 1 -41 39 -26 59 -92 147 -140 188
-28 23 -85 47 -212 90 -96 32 -176 59 -177 59 -6 0 -1 97 6 141 8 48 43 103
73 114 9 3 40 -7 71 -25 74 -41 197 -85 331 -118 72 -17 101 -28 84 -30 -33
-4 -171 29 -285 69 -95 32 -98 29 -63 -50 78 -171 281 -340 448 -372 179 -33
309 20 437 181 11 14 52 46 91 72 75 51 253 218 300 283 16 22 31 42 35 45 3
3 19 25 35 50 167 257 213 402 284 887 10 66 16 82 32 86 18 5 96 -4 166 -19
l33 -7 -6 54 c-25 214 -64 349 -155 534 -56 114 -135 246 -152 253 -4 2 -8 8
-8 13 0 5 -20 35 -45 67 -34 44 -45 65 -45 93 l0 36 78 -19 c59 -15 96 -18
158 -13 98 7 276 46 340 74 26 12 53 21 60 21 13 0 84 -30 94 -40 3 -3 43 -31
90 -62 47 -31 98 -68 115 -81 l30 -25 -18 -36 c-25 -54 -23 -163 5 -229 12
-29 24 -54 28 -57 3 -3 18 -22 34 -44 l29 -39 -30 -61 c-40 -80 -56 -159 -56
-271 0 -150 58 -277 157 -339 36 -22 48 -38 61 -76 45 -136 141 -201 277 -185
36 4 58 3 58 -3 0 -17 67 -78 107 -98 29 -14 60 -19 129 -19 82 0 96 3 155 33
l66 33 51 -16 c74 -24 180 -17 253 17 116 53 185 147 210 288 10 59 9 80 -6
157 -13 62 -19 140 -20 268 -2 176 -2 183 -38 302 -20 67 -48 146 -63 175 -59
117 -150 227 -239 288 -44 30 -48 37 -60 100 -16 83 -77 154 -170 197 -56 26
-69 28 -193 28 l-134 0 -15 30 c-9 17 -19 32 -22 35 -3 3 -20 25 -36 50 -17
24 -52 71 -78 105 -27 33 -60 83 -74 110 -51 100 -119 184 -276 343 -114 116
-114 111 -3 138 98 24 255 85 323 125 72 43 162 134 193 195 26 53 49 149 50
208 0 25 12 59 32 95 67 116 143 310 182 466 43 172 41 381 -5 498 -23 59
-105 214 -126 238 -11 14 -10 20 12 43 31 33 31 34 0 76 -34 45 -32 89 6 180
30 70 31 78 25 159 -5 62 -15 100 -34 140 -31 63 -103 141 -150 162 -34 14
-38 23 -62 131 -24 111 -87 246 -178 383 -102 153 -336 350 -492 415 -30 12
-84 35 -120 50 -128 53 -369 105 -534 115 -50 3 -111 7 -136 9 -25 2 -99 0
-165 -5z m330 -124 c139 -20 241 -42 290 -64 23 -10 67 -22 96 -26 92 -12 345
-144 461 -241 63 -53 176 -174 217 -231 34 -49 74 -124 122 -228 20 -44 39
-109 39 -132 0 -22 -4 -25 -25 -20 -14 2 -23 2 -21 -1 3 -2 -6 -14 -20 -25
-30 -23 -19 -46 14 -28 70 38 198 -40 251 -153 32 -70 28 -96 -30 -172 -28
-37 -55 -77 -59 -90 -15 -37 -97 -160 -126 -188 -28 -25 -46 -28 -27 -4 21 26
35 89 28 128 -8 50 -22 51 -30 3 -11 -66 -36 -122 -65 -146 -26 -23 -96 -44
-107 -34 -2 3 12 22 31 43 54 59 81 142 80 244 0 64 -5 96 -21 130 -32 71 -36
84 -35 105 1 14 0 16 -5 5 -3 -8 -11 -18 -16 -22 -6 -4 -2 -23 12 -52 49 -106
48 -203 -3 -303 -49 -97 -110 -135 -217 -134 -61 0 -134 15 -149 31 -3 3 -24
18 -46 33 -46 31 -85 77 -156 181 -55 81 -135 166 -194 206 -97 68 -207 88
-268 50 -70 -43 -107 -169 -68 -232 23 -36 66 -78 82 -78 6 0 10 -19 10 -42 0
-40 -3 -45 -50 -76 -28 -17 -50 -36 -50 -41 0 -5 -11 -4 -24 2 -13 7 -22 15
-20 19 3 4 -8 14 -23 22 -16 7 -36 23 -47 35 -16 18 -20 19 -34 5 -9 -9 -24
-13 -36 -10 -12 3 -33 6 -48 6 -26 0 -28 3 -28 37 0 47 -19 32 -31 -24 -7 -33
-8 -30 -5 20 3 56 2 57 -18 42 -35 -25 -44 -28 -92 -20 -38 5 -55 16 -101 63
-67 68 -53 82 18 18 28 -25 58 -46 65 -46 8 0 37 11 65 25 71 36 82 81 38 143
-15 21 -22 23 -63 17 -57 -9 -60 -24 -4 -22 35 2 44 -2 56 -24 10 -16 13 -36
8 -52 -9 -36 -20 -34 -31 5 -10 31 -12 33 -52 30 -29 -2 -48 2 -59 12 -17 18
-64 22 -64 6 0 -5 7 -10 16 -10 19 0 124 -91 118 -102 -11 -17 -34 -6 -75 37
-44 46 -66 54 -87 33 -8 -8 -15 -8 -24 -1 -19 15 -61 23 -75 15 -10 -6 -10
-15 -1 -40 7 -17 9 -34 6 -38 -15 -14 -25 9 -32 68 -8 80 -18 89 -55 50 -16
-18 -35 -32 -43 -32 -7 0 -26 -16 -41 -36 -26 -31 -27 -37 -14 -52 8 -9 17
-39 21 -66 3 -27 8 -52 11 -55 3 -3 19 3 34 12 16 9 35 17 43 17 15 -1 -41
-50 -57 -50 -6 0 -18 -9 -28 -20 -15 -18 -37 -27 -37 -15 0 3 6 14 12 25 10
16 10 24 0 41 -7 11 -16 43 -19 71 -5 42 -11 53 -37 69 -43 26 -53 24 -60 -12
-3 -18 -14 -38 -24 -46 -16 -13 -16 -14 6 -29 16 -12 22 -26 22 -54 0 -35 4
-41 45 -64 l45 -27 -38 -32 c-20 -18 -39 -36 -40 -40 -8 -17 -32 17 -32 45 0
29 -29 95 -52 119 -27 28 -35 67 -37 169 -1 58 -4 128 -7 155 l-5 50 21 -25
c12 -14 27 -32 34 -40 29 -35 120 -110 133 -110 8 0 24 5 36 11 24 13 277 262
277 272 0 4 -9 7 -19 7 -26 0 -30 9 -36 77 -3 32 -9 84 -14 116 -7 51 -3 103
14 200 2 15 1 26 -3 23 -5 -3 -15 -37 -22 -76 -10 -55 -11 -99 -3 -201 6 -72
16 -136 22 -142 6 -6 11 -18 11 -27 0 -16 -189 -201 -213 -209 -7 -2 -20 -11
-30 -19 -16 -14 -19 -14 -36 4 -11 10 -34 30 -51 44 -18 13 -50 47 -71 76
l-39 51 0 123 c0 68 -2 121 -5 118 -12 -12 -16 -85 -19 -328 -3 -237 -2 -257
16 -292 11 -21 26 -42 32 -46 15 -9 49 -92 41 -100 -3 -4 -16 6 -29 21 -13 15
-28 27 -33 27 -5 0 -18 9 -27 19 -10 10 -32 22 -49 25 l-32 6 0 400 c0 311 3
401 13 405 6 2 12 14 12 25 0 32 25 35 134 12 55 -12 125 -23 154 -26 73 -7
76 -10 66 -70 -5 -28 -7 -101 -6 -161 l3 -110 -35 -34 c-34 -33 -37 -34 -63
-20 -14 8 -46 39 -70 69 -55 71 -58 112 -10 160 l32 32 -40 -7 c-38 -7 -64
-28 -65 -52 0 -7 5 -13 10 -13 6 0 10 -11 10 -24 0 -30 19 -87 36 -107 8 -8
14 -31 14 -51 0 -36 32 -79 85 -114 23 -15 25 -15 25 0 0 9 4 16 9 16 5 0 29
20 53 44 25 24 54 47 66 50 12 4 22 13 23 19 6 65 5 95 -3 109 -4 10 -9 83 -9
162 l-1 145 -66 7 c-36 4 -85 15 -108 26 -31 13 -73 19 -156 22 -62 2 -141 7
-175 11 -39 5 -73 3 -90 -3 -32 -13 -103 -22 -103 -15 0 9 33 32 70 49 19 9
44 20 55 25 38 18 371 16 345 -1 -11 -8 -8 -9 12 -4 15 3 39 7 52 8 79 4 -76
34 -223 43 -98 6 -167 -6 -249 -44 -18 -8 -39 -12 -47 -9 -7 2 -21 -2 -32 -10
-17 -14 -16 -14 5 -4 28 14 30 -5 2 -20 -25 -13 -114 -125 -173 -216 -49 -75
-63 -124 -53 -179 9 -46 26 -45 26 3 1 20 7 54 14 74 16 44 76 137 103 158 52
41 83 59 119 69 40 11 194 15 194 6 0 -3 -10 -20 -22 -36 -23 -30 -23 -34 -23
-377 -1 -300 -3 -352 -17 -384 -10 -21 -23 -38 -31 -38 -13 0 -13 5 -1 38 7
20 13 54 14 75 0 34 -2 38 -20 32 -17 -5 -20 -2 -20 20 0 14 -5 36 -11 47 -10
19 -13 20 -23 6 -6 -9 -20 -17 -31 -19 -18 -4 -21 -15 -25 -94 -6 -94 -24
-150 -41 -124 -8 12 -11 11 -20 -3 -5 -10 -16 -18 -23 -18 -7 0 -25 -9 -40
-21 -28 -22 -72 -20 -89 4 -6 8 -7 6 -3 -5 3 -10 1 -20 -4 -23 -6 -4 -10 11
-10 34 0 23 5 41 10 41 6 0 10 9 10 20 0 24 37 60 62 60 11 0 27 -14 36 -30 9
-17 24 -29 32 -27 12 2 15 20 15 89 0 102 -15 128 -78 131 -20 1 -37 5 -37 10
0 4 6 7 13 7 26 0 67 103 67 171 0 39 -46 139 -68 147 -15 5 -16 -44 -1 -54 7
-4 9 -24 6 -52 -6 -55 -35 -81 -89 -82 -43 0 -64 26 -52 63 4 12 8 31 10 42 5
36 46 149 76 210 90 185 242 361 404 471 21 15 41 29 44 33 14 17 93 52 99 43
6 -10 208 2 219 12 3 3 -26 6 -65 6 -95 0 -113 19 -46 48 27 11 66 25 88 32
56 18 57 18 90 39 43 28 235 87 340 105 50 9 117 22 150 30 79 18 236 19 360
1z m-1504 -663 c-5 -10 -18 -25 -27 -33 -16 -12 -17 -12 -9 1 10 18 37 50 42
50 2 0 -1 -8 -6 -18z m1709 -639 c-1 -10 -26 -43 -33 -43 -3 0 0 11 6 25 11
23 27 34 27 18z m50 -30 c43 -30 111 -105 90 -98 -17 6 -20 2 -20 -30 0 -20
-7 -49 -15 -66 -26 -49 -8 -67 73 -72 53 -2 45 -4 -35 -5 -89 -2 -132 -7 -231
-28 -13 -3 -21 -1 -18 4 3 5 24 12 46 16 37 6 39 8 34 34 -4 18 -1 34 8 43 8
8 17 42 20 75 3 33 13 75 22 92 15 29 15 32 -2 41 -9 6 -12 11 -7 11 6 0 22
-8 35 -17z m-693 -8 c3 -9 3 -19 -1 -22 -7 -7 -36 16 -36 28 0 15 30 10 37 -6z
m-139 -92 c55 -60 68 -79 55 -82 -9 -2 -19 2 -21 8 -5 15 -23 14 -19 -1 4 -20
-31 -20 -53 0 -21 20 -21 20 -74 -32 -28 -28 -79 -70 -113 -94 -34 -24 -78
-62 -98 -84 -32 -34 -37 -46 -37 -84 1 -50 -8 -55 -32 -19 -18 27 -21 71 -7
107 11 29 99 121 133 139 32 17 81 55 123 95 25 23 35 43 40 77 4 26 12 47 19
47 6 0 44 -35 84 -77z m-221 30 c10 -30 6 -63 -6 -63 -8 0 -21 48 -21 76 0 24
18 15 27 -13z m953 -13 c-5 -22 -8 -27 -9 -13 -1 21 9 56 14 51 2 -2 0 -19 -5
-38z m1238 -128 c-16 -7 -8 -31 12 -37 24 -8 80 -62 80 -78 0 -7 -4 -6 -10 3
-8 13 -10 13 -10 -2 0 -9 -4 -19 -9 -22 -5 -3 -8 9 -7 27 1 35 3 34 -76 36
-38 1 -47 4 -46 19 0 9 -2 24 -6 32 -4 9 7 36 26 65 l31 50 12 -45 c6 -25 8
-46 3 -48z m32 14 c0 -65 -6 -56 -13 19 -4 39 -3 54 3 45 5 -8 10 -37 10 -64z
m-1006 25 c-6 -6 -34 20 -34 32 0 6 8 2 19 -9 10 -10 17 -21 15 -23z m-259
-41 c-3 -5 -13 -10 -21 -10 -8 0 -14 -8 -15 -17 0 -13 -2 -14 -6 -4 -3 8 2 20
13 28 21 15 38 17 29 3z m-778 -16 c3 -9 -2 -21 -13 -29 -11 -7 -30 -23 -44
-35 -14 -12 -53 -35 -87 -51 -33 -15 -64 -32 -67 -38 -3 -5 -7 -42 -8 -81 -1
-39 -4 -67 -6 -61 -2 6 -8 11 -14 11 -17 0 -49 43 -43 58 3 7 5 19 5 27 0 13
75 95 88 95 4 0 18 10 32 23 14 12 41 34 60 47 19 13 41 30 48 37 18 18 41 16
49 -3z m-588 -12 c4 -7 12 -14 17 -14 20 -1 60 -24 87 -51 15 -15 33 -24 39
-21 7 5 8 2 3 -5 -7 -13 28 -55 38 -45 3 3 4 -6 3 -19 0 -15 -6 -23 -13 -20
-7 3 -13 9 -13 13 0 15 -87 98 -121 116 -19 9 -63 28 -99 40 l-65 23 58 -1
c38 -1 61 -6 66 -16z m1733 -22 c17 -19 16 -19 -15 -13 -41 8 -47 13 -16 14
22 0 23 1 4 9 -14 6 -15 9 -5 9 9 1 23 -8 32 -19z m766 -5 c-12 -14 -23 -23
-25 -21 -6 5 29 46 39 46 4 0 -2 -11 -14 -25z m-1910 -195 c5 0 12 4 18 9 5 5
37 23 71 41 57 29 62 34 58 61 -2 16 1 29 6 29 5 0 9 -13 9 -28 l0 -28 63 8
c125 18 197 24 197 17 0 -6 46 -15 127 -25 13 -1 34 -12 49 -23 15 -12 45 -26
67 -32 30 -8 37 -13 26 -20 -8 -5 -21 -9 -31 -9 -58 0 -227 -104 -205 -127 4
-3 17 3 30 14 12 11 42 31 67 44 57 29 207 36 430 20 222 -16 293 5 388 115
l37 42 85 3 c47 2 120 2 163 1 l78 -2 15 -35 c7 -19 14 -38 14 -42 0 -4 -23
-17 -51 -28 -47 -18 -92 -65 -78 -80 3 -3 31 9 61 25 91 49 219 39 256 -21 17
-27 -1 -100 -37 -153 -46 -67 -54 -71 -140 -68 -67 3 -78 6 -94 28 -33 43
-120 23 -189 -43 -20 -20 -45 -36 -55 -37 -36 -4 -73 -29 -73 -50 0 -17 -2
-18 -10 -6 -30 46 2 175 57 232 15 15 24 30 21 34 -22 21 -129 -72 -155 -134
-31 -73 -8 -217 35 -229 12 -3 19 -13 18 -26 -1 -16 -13 -25 -47 -38 -196 -70
-323 -224 -385 -468 -13 -51 -24 -118 -24 -148 0 -34 -4 -52 -10 -48 -5 3 -10
21 -10 39 0 44 -15 56 -53 45 -18 -5 -48 -9 -67 -9 -38 -1 -70 -19 -70 -41 0
-8 -3 -9 -9 -4 -19 22 -33 120 -40 283 -6 134 -11 176 -22 183 -25 16 -78 10
-99 -11 -11 -11 -31 -20 -44 -20 -25 0 -35 -16 -37 -53 0 -21 -1 -21 -8 -3 -5
14 -10 16 -15 8 -14 -23 -25 -11 -23 25 2 30 -2 39 -21 49 -13 6 -28 16 -33
21 -4 4 -12 85 -18 178 -5 94 -10 177 -12 185 -3 11 5 16 28 18 36 4 47 22 32
55 -13 28 -48 42 -114 46 -27 1 -54 6 -59 11 -9 9 -56 -17 -56 -31 0 -5 24 -6
53 -3 63 7 107 -7 107 -36 0 -13 -7 -20 -20 -20 -22 0 -27 -19 -9 -37 8 -8 8
-13 0 -17 -6 -4 -11 -2 -11 3 0 6 -10 1 -22 -11 -19 -19 -20 -24 -9 -69 7 -26
12 -76 11 -111 0 -34 1 -74 2 -87 2 -13 -2 -26 -8 -28 -24 -8 -39 302 -15 316
16 10 6 31 -14 31 -18 0 -27 -42 -26 -128 0 -43 -3 -71 -9 -67 -5 3 -7 12 -4
19 3 7 0 41 -5 76 -8 48 -8 66 1 72 27 16 -5 20 -54 6 -42 -12 -53 -19 -51
-34 4 -29 -9 -101 -15 -84 -3 8 -13 20 -22 27 -13 9 -19 34 -24 100 -11 133
-26 139 -26 11 0 -60 -4 -108 -9 -108 -5 0 -10 39 -10 88 -1 48 -5 103 -10
122 -8 32 -9 31 -10 -25 -2 -117 -13 -195 -27 -195 -10 0 -14 15 -14 50 0 36
-4 52 -15 56 -10 4 -15 20 -15 50 0 38 -4 45 -28 58 -16 8 -35 22 -42 31 -12
15 -12 17 5 15 11 -1 25 -2 32 -1 16 1 38 82 25 90 -32 20 -15 149 24 188 l27
27 -7 -80 c-6 -76 3 -149 17 -128 3 6 11 42 17 80 14 85 23 97 18 23 -3 -49
-1 -55 14 -51 22 5 26 25 16 87 -9 55 -4 81 21 109 15 17 16 12 19 -73 1 -50
6 -91 10 -91z m642 155 c-6 -8 -9 -19 -5 -25 3 -5 1 -10 -4 -10 -15 0 -14 23
1 38 17 17 23 15 8 -3z m-1252 -45 c108 -51 190 -143 263 -295 26 -53 35 -65
37 -47 2 12 -3 46 -12 74 -16 56 -15 64 8 55 8 -3 19 -30 25 -60 10 -46 17
-57 50 -78 38 -24 39 -25 44 -99 3 -41 8 -82 11 -90 8 -19 -51 -57 -65 -43 -6
6 -13 35 -16 65 -5 51 -3 57 26 90 35 40 38 48 15 48 -15 0 -58 -39 -96 -87
-24 -31 -39 -113 -41 -218 -2 -83 -4 -90 -23 -93 -13 -2 -27 -17 -37 -41 -26
-58 -46 -63 -186 -41 -146 23 -156 26 -201 59 -65 49 -91 75 -86 88 3 8 -2 13
-14 13 -22 0 -29 18 -29 78 0 31 4 42 16 42 8 0 17 -9 20 -20 3 -11 8 -20 12
-20 4 0 34 -26 66 -57 36 -34 79 -63 107 -74 44 -16 48 -16 62 0 13 15 13 22
1 56 -8 22 -14 66 -15 98 0 52 3 62 29 88 16 16 34 29 40 29 12 0 39 -59 70
-153 13 -37 27 -67 31 -67 13 0 30 35 30 62 0 107 -132 372 -205 412 -11 6
-22 14 -25 17 -11 13 -76 29 -117 29 -45 0 -90 -17 -112 -44 -17 -20 -40 -10
-34 15 4 13 0 19 -11 19 -9 0 -16 8 -16 20 0 32 -18 23 -26 -12 -4 -18 -7 -35
-7 -38 1 -3 5 -14 8 -25 6 -16 5 -17 -4 -5 -9 13 -11 12 -12 -5 -1 -16 -2 -15
-8 5 -16 55 44 172 114 226 50 38 100 53 180 54 57 0 81 -5 133 -30z m721 3
c0 -25 -1 -26 -9 -8 -6 17 -8 14 -12 -15 l-5 -35 -1 37 c-2 31 3 40 26 47 1 1
2 -11 1 -26z m570 -17 c0 -6 -3 -5 -6 2 -2 6 -9 10 -13 7 -5 -3 -8 4 -7 15 1
20 2 20 14 4 7 -10 13 -23 12 -28z m178 7 c22 -45 56 -65 102 -59 35 5 91 50
91 73 0 7 4 13 8 13 9 0 198 -38 216 -43 5 -2 -17 -13 -50 -26 -172 -68 -170
-67 -354 -54 l-92 6 -15 34 c-7 19 -16 47 -20 64 l-5 29 51 0 c49 0 52 -1 68
-37z m1143 15 c-40 -81 -45 -88 -68 -88 -32 0 -37 22 -12 69 18 36 24 41 56
41 33 0 34 -1 24 -22z m-3111 -93 c6 -3 11 -12 11 -18 -1 -7 -10 -1 -20 12
-11 13 -20 31 -19 40 0 11 3 10 9 -5 5 -12 13 -25 19 -29z m3179 -15 c11 -19
42 -75 68 -125 l47 -90 5 -167 c4 -166 -3 -205 -25 -134 -13 42 -93 166 -108
166 -6 0 -10 28 -10 68 0 52 -4 73 -17 86 -13 12 -18 33 -18 71 0 29 -6 68
-14 86 -14 32 -13 35 12 62 28 30 31 29 60 -23z m-2296 -125 c4 -20 3 -23 -8
-14 -15 12 -20 54 -5 45 5 -3 11 -17 13 -31z m-798 -230 c3 -27 2 -35 -4 -24
-5 9 -12 54 -14 100 -5 78 -5 80 4 24 5 -33 11 -78 14 -100z m296 120 c20 -24
6 -28 -15 -5 -10 11 -13 20 -8 20 6 0 16 -7 23 -15z m2730 -29 c0 -13 -7 -29
-15 -36 -12 -10 -15 -9 -15 8 0 27 10 52 21 52 5 0 9 -11 9 -24z m-3125 -105
c-8 -8 -35 22 -35 38 0 12 5 10 20 -9 10 -14 17 -27 15 -29z m1234 -73 c0 -61
-3 -77 -9 -60 -5 12 -16 25 -25 28 -22 9 -21 90 3 103 30 18 32 13 31 -71z
m1960 27 c0 -5 -6 -1 -14 9 -8 11 -15 24 -15 30 0 5 7 1 15 -10 8 -10 14 -23
14 -29z m-219 5 c-14 -11 -32 -19 -40 -19 -8 0 1 8 20 19 45 25 51 25 20 0z
m-113 -40 c4 -13 3 -13 -6 0 -10 13 -13 13 -26 -4 -8 -11 -18 -17 -21 -13 -9
9 19 37 35 34 8 -1 16 -9 18 -17z m-2018 -55 c0 -5 -3 -28 -8 -51 -4 -22 -5
-49 -1 -59 6 -18 8 -17 33 7 24 24 27 25 27 8 0 -12 5 -17 13 -14 7 2 24 -7
37 -21 13 -14 18 -25 12 -25 -6 0 -14 5 -17 10 -3 6 -13 10 -21 10 -10 0 -7
-11 12 -40 33 -50 25 -61 -20 -26 -38 29 -56 32 -74 14 -9 -9 -12 -3 -12 29 0
22 -6 58 -14 80 -8 24 -12 58 -9 88 l6 48 18 -24 c10 -13 18 -28 18 -34z
m1936 45 c-28 -12 -47 -12 -40 0 3 6 18 10 33 9 24 0 25 -1 7 -9z m106 -26
c-5 -16 -10 -21 -10 -12 -1 18 10 51 15 45 2 -1 -1 -16 -5 -33z m97 19 c-16
-2 -40 -2 -55 0 -16 2 -3 4 27 4 30 0 43 -2 28 -4z m-308 -13 c-14 -4 -60 -17
-102 -29 -42 -12 -84 -24 -92 -27 -9 -3 -16 -2 -16 3 0 5 33 17 73 26 39 10
79 22 87 27 8 5 29 9 45 9 29 -1 29 -1 5 -9z m425 0 c18 -8 18 -9 -5 -9 -14 0
-34 4 -45 9 -18 8 -18 9 5 9 14 0 34 -4 45 -9z m-1927 -22 c7 -7 12 -18 12
-25 0 -8 -7 -6 -20 7 -11 11 -20 22 -20 25 0 9 16 5 28 -7z m2051 -5 c-3 -30
1 -39 10 -25 6 10 10 7 13 -12 6 -31 -2 -33 -22 -6 -8 11 -20 20 -27 20 -7 0
-13 4 -13 10 0 5 7 7 15 4 9 -4 15 0 15 10 0 9 3 16 6 16 3 0 4 -8 3 -17z
m-3169 -25 c0 -4 -6 -5 -14 -2 -8 3 -12 12 -9 21 5 12 7 12 14 1 5 -7 9 -16 9
-20z m1042 -55 c24 -9 49 -23 57 -31 8 -7 24 -11 36 -8 26 7 35 -13 35 -81 0
-32 -5 -45 -20 -53 -16 -9 -26 -5 -57 23 -41 35 -97 78 -153 116 -47 31 -46
31 -30 41 23 15 86 12 132 -7z m1807 -15 c0 -18 -3 -26 -6 -18 -3 8 -11 18
-17 23 -8 5 -6 10 4 17 21 13 20 14 19 -22z m-24 -28 c-3 -6 4 -10 16 -10 36
0 161 -40 205 -65 31 -18 47 -37 63 -74 26 -61 38 -163 23 -194 -6 -12 -16
-37 -24 -54 -7 -18 -16 -33 -19 -33 -4 0 -17 16 -30 35 -13 19 -32 38 -41 41
-10 3 -18 9 -18 14 0 5 6 7 14 4 18 -7 18 27 0 44 -9 8 -13 6 -18 -11 -3 -11
-8 -19 -10 -16 -3 3 -1 20 4 39 5 18 6 39 1 48 -9 16 -11 13 -46 -52 -6 -13
-33 -25 -75 -36 -85 -22 -196 -63 -262 -96 -33 -17 -75 -28 -113 -31 -52 -5
-70 -1 -133 27 -40 18 -75 30 -78 27 -5 -5 23 -67 35 -77 3 -3 13 -18 21 -34
8 -15 33 -46 55 -67 37 -36 44 -39 97 -39 32 0 58 4 58 10 0 6 6 10 13 10 7 0
39 15 70 34 l57 35 11 -45 c21 -81 43 -69 106 60 25 52 43 80 43 67 0 -17 4
-21 18 -17 9 3 39 6 66 8 38 1 50 6 56 22 7 20 7 20 17 1 19 -36 25 -120 12
-190 -6 -39 -15 -72 -18 -75 -4 -3 -13 -18 -20 -35 -7 -16 -16 -24 -18 -18 -2
7 2 22 11 35 25 36 5 48 -81 48 -56 0 -75 -4 -79 -15 -4 -9 -19 -15 -35 -15
-16 0 -29 -5 -29 -11 0 -5 -13 -15 -29 -20 -16 -6 -32 -16 -34 -23 -3 -8 -26
-17 -51 -20 -25 -4 -46 -11 -46 -16 0 -5 -13 -11 -30 -15 -16 -4 -30 -11 -30
-16 0 -5 -11 -9 -24 -9 -13 0 -40 -7 -59 -15 -51 -21 -357 -21 -398 1 -16 8
-34 13 -41 12 -16 -4 -14 123 3 197 13 58 55 146 97 207 36 53 135 155 181
188 19 14 46 34 60 45 117 92 294 165 402 165 21 0 44 7 51 15 15 16 32 20 23
5z m-1180 -210 c-3 -6 -10 -38 -14 -73 -8 -60 -9 -61 -10 -15 -1 45 12 98 24
98 4 0 3 -5 0 -10z m-453 -60 c-23 -16 -44 -30 -47 -30 -8 0 31 37 51 49 39
22 36 10 -4 -19z m68 12 c0 -5 -11 -18 -25 -30 -31 -27 -35 -78 -6 -87 11 -3
22 -12 25 -20 4 -10 -5 -8 -27 7 -17 13 -33 23 -34 24 -9 2 21 76 33 81 8 3
14 11 14 19 0 8 5 14 10 14 6 0 10 -4 10 -8z m369 -194 c-2 -78 -2 -80 -9 -33
-12 72 -11 115 0 115 6 0 9 -33 9 -82z m-239 -43 c33 -35 21 -37 -15 -3 -16
15 -25 28 -19 28 6 0 21 -11 34 -25z m60 -70 c13 -14 18 -25 11 -25 -6 0 -14
7 -17 15 -4 8 -12 15 -20 15 -8 0 -14 5 -14 10 0 17 15 11 40 -15z m168 -77
c23 -7 42 -16 42 -21 0 -5 -8 -6 -17 -2 -10 4 -31 12 -48 17 -16 6 -34 15 -40
21 -7 6 -5 8 5 4 8 -3 34 -12 58 -19z m289 -110 c-2 -13 -4 -3 -4 22 0 25 2
35 4 23 2 -13 2 -33 0 -45z m26 -19 c-4 -4 -6 13 -3 39 l5 47 3 -39 c2 -21 0
-42 -5 -47z m-134 36 c6 3 11 1 11 -4 0 -20 -29 -11 -40 12 -10 21 -10 21 4 3
8 -10 19 -15 25 -11z m120 -59 c8 -2 17 -8 19 -14 5 -17 -3 -15 -40 9 -18 12
-24 18 -13 14 11 -4 27 -8 34 -9z m987 -37 c-18 -26 -55 -53 -63 -45 -3 3 6
10 20 17 14 6 28 20 30 30 3 11 10 19 17 19 7 0 6 -7 -4 -21z m-861 -57 c-6
-7 -45 23 -45 35 0 6 11 2 24 -10 14 -12 23 -23 21 -25z m-1674 -13 c26 -37
79 -62 114 -53 34 8 32 -4 -13 -78 -96 -161 -195 -404 -262 -648 -47 -169 -82
-355 -108 -565 -8 -67 -42 -101 -129 -129 -16 -5 -45 14 -129 85 -60 50 -118
98 -130 105 -23 16 -65 7 -121 -26 -39 -23 -76 -26 -91 -7 -13 16 -26 148 -17
186 7 35 111 121 145 121 18 0 52 -26 130 -98 19 -18 68 -54 108 -79 85 -53
78 -56 136 62 120 243 212 545 292 957 22 109 42 198 46 198 4 0 17 -14 29
-31z m-335 13 c6 -4 29 -32 52 -63 52 -69 54 -102 10 -184 -17 -33 -43 -98
-58 -145 l-27 -85 -59 3 c-33 2 -61 6 -63 8 -2 2 12 39 32 81 47 102 64 168
47 188 -41 49 -163 -47 -244 -192 -43 -78 -86 -218 -86 -281 0 -58 25 -109 63
-129 43 -22 128 -13 200 21 32 16 60 26 62 24 6 -6 -156 -119 -216 -150 -106
-57 -200 -25 -229 77 -34 121 26 375 126 531 118 185 324 342 390 296z m147
-54 c4 -10 8 -10 15 1 8 11 11 9 17 -8 6 -21 7 -22 21 -4 12 17 13 16 14 -7 1
-96 -105 -539 -180 -750 -62 -175 -134 -330 -153 -330 -18 0 -91 53 -157 113
-42 38 -50 51 -39 58 8 5 19 9 26 9 17 0 294 187 321 217 17 19 22 35 20 62
-5 56 -43 54 -165 -8 -122 -62 -159 -70 -196 -41 -23 18 -27 29 -27 74 0 92
49 219 127 327 32 46 69 76 79 67 2 -3 -19 -49 -46 -104 -27 -54 -50 -104 -50
-111 0 -29 32 -43 96 -43 36 0 81 -7 101 -15 38 -16 52 -9 53 24 0 34 45 163
82 236 36 70 41 88 41 147 0 40 -5 74 -13 83 -7 9 -8 15 -2 15 6 0 13 -6 15
-12z m2010 -33 c38 -36 34 -41 -8 -9 -19 14 -35 28 -35 30 0 11 18 1 43 -21z
m511 10 c-25 -19 -38 -19 -22 0 7 8 19 14 27 15 11 0 9 -4 -5 -15z m-4401 -84
c52 -50 167 -192 167 -206 0 -3 10 -19 21 -34 20 -27 19 -58 -2 -46 -5 4 -9
-7 -9 -24 0 -23 -12 -42 -54 -82 -35 -34 -53 -57 -49 -68 3 -11 2 -12 -4 -4
-6 8 -18 0 -39 -25 -41 -49 -48 -82 -28 -132 18 -44 15 -131 -5 -138 -6 -2
-11 -10 -11 -17 0 -14 -11 -19 -65 -30 -28 -5 -33 -2 -48 30 -25 53 -22 67 34
150 40 60 52 86 56 128 5 61 -9 133 -25 129 -7 -1 -12 6 -12 15 0 18 -22 85
-30 93 -3 3 -6 22 -7 44 -2 21 -7 44 -13 51 -11 13 2 130 22 196 14 47 24 44
101 -30z m4177 -1 c-8 -5 -24 -10 -35 -10 -17 0 -17 2 -5 10 8 5 24 10 35 10
17 0 17 -2 5 -10z m-1930 -21 c0 -6 6 -16 13 -23 31 -33 68 -78 65 -80 -50
-33 -109 -86 -175 -154 -115 -120 -116 -134 -31 -332 72 -168 112 -273 110
-292 -1 -25 -32 -68 -49 -68 -21 0 -110 97 -118 128 -10 41 -44 82 -68 82 -11
0 -32 -10 -45 -22 -23 -22 -24 -22 -19 -3 4 11 13 55 22 97 34 167 143 447
239 615 36 63 56 82 56 52z m281 -237 c29 -53 57 -100 63 -104 7 -4 -1 -29
-21 -70 -17 -35 -36 -82 -42 -104 l-11 -42 -70 2 c-38 0 -70 3 -70 4 0 2 16
33 36 68 32 58 35 70 29 111 -4 28 -16 55 -31 70 -23 23 -25 23 -54 8 -17 -9
-48 -33 -70 -54 -52 -51 -58 -88 -27 -172 26 -69 89 -199 125 -259 64 -104 62
-132 -19 -259 -35 -55 -73 -105 -84 -111 -16 -9 -31 -7 -68 9 -72 31 -159 51
-221 51 -31 0 -56 4 -56 9 0 5 14 42 31 82 27 64 30 80 25 131 -4 32 -5 58 -2
58 3 0 18 -25 33 -56 27 -56 98 -128 141 -145 15 -6 31 -5 43 2 28 15 79 98
79 129 0 26 -89 261 -137 360 -14 30 -28 76 -31 102 l-4 46 78 80 c44 43 97
91 119 105 39 25 143 59 157 51 4 -3 30 -48 59 -102z m-2727 -85 c8 -26 13
-61 9 -77 -4 -25 -11 -30 -33 -30 -15 0 -33 7 -40 15 -7 8 -16 12 -21 9 -15
-9 -10 47 14 136 31 119 40 129 49 55 3 -33 13 -82 22 -108z m456 -1 l19 -45
-60 -118 c-33 -65 -59 -109 -57 -98 2 15 -2 19 -19 17 -32 -4 -37 14 -15 59
11 23 18 49 15 58 -4 12 -3 13 5 3 7 -11 14 -6 31 22 12 20 20 40 16 46 -3 6
1 17 10 26 9 9 19 29 22 45 3 16 7 29 10 29 2 0 12 -20 23 -44z m-553 -158
c-2 -13 -4 -3 -4 22 0 25 2 35 4 23 2 -13 2 -33 0 -45z m37 -13 c5 -22 4 -26
-4 -15 -5 8 -10 24 -10 34 0 26 6 18 14 -19z m-25 -145 c0 -19 -3 -51 -7 -70
-12 -54 -4 -80 22 -80 13 0 29 7 36 15 7 8 24 15 37 15 19 0 24 4 19 16 -4 9
-2 13 5 8 6 -3 9 -18 6 -32 -4 -20 2 -32 21 -49 30 -26 47 -29 59 -10 7 11 55
37 68 37 3 0 5 -6 5 -14 0 -19 18 -24 62 -18 23 2 39 10 41 21 3 9 5 4 6 -11
0 -15 -3 -30 -9 -33 -5 -3 -10 -23 -10 -43 0 -20 -4 -42 -8 -49 -22 -34 -174
-59 -290 -48 l-70 7 -6 52 c-4 28 -9 123 -12 211 -4 145 -3 158 11 135 8 -14
14 -41 14 -60z m2766 9 l41 -21 -18 -51 c-9 -29 -17 -62 -18 -75 0 -13 -4 -21
-9 -17 -13 7 -111 154 -111 165 0 9 23 17 54 19 10 0 38 -8 61 -20z m-2227
-43 c3 -12 -1 -17 -10 -14 -7 3 -15 13 -16 22 -3 12 1 17 10 14 7 -3 15 -13
16 -22z m4303 -98 c19 -24 36 -45 40 -48 9 -7 79 -118 79 -126 0 -3 14 -22 30
-41 17 -18 30 -38 30 -42 0 -5 -41 -7 -91 -5 -52 2 -98 0 -110 -6 -17 -9 -33
-39 -90 -165 -10 -24 -28 -103 -29 -127 0 -34 19 -18 30 24 7 22 25 54 41 70
16 16 29 34 29 39 0 5 9 14 20 21 11 7 20 18 20 25 0 7 6 13 14 13 8 0 16 6
19 13 6 15 108 47 149 47 26 0 38 -8 68 -47 49 -63 52 -101 12 -164 -52 -81
-146 -149 -253 -182 -51 -16 -136 -25 -143 -16 -83 115 -160 202 -264 302
l-53 51 61 57 c39 37 58 62 54 72 -3 8 -1 18 5 22 7 4 9 -1 5 -12 -6 -19 83
70 172 170 36 42 55 56 67 51 19 -7 23 11 6 22 -8 4 -7 9 2 15 27 17 48 8 80
-33z m-4292 -15 c21 -21 44 -53 51 -72 26 -66 4 -175 -48 -236 -70 -82 -226
-144 -358 -145 -62 0 -81 6 -364 118 -38 15 -47 24 -58 57 -19 57 -8 147 24
203 25 42 57 77 71 77 7 0 33 -137 28 -143 -1 -2 -19 7 -39 19 -20 11 -36 18
-36 14 0 -4 28 -42 62 -85 57 -72 67 -80 113 -92 106 -26 285 -8 380 39 63 32
133 105 141 150 8 44 3 48 -30 22 -15 -12 -29 -20 -31 -17 -2 2 3 32 12 66 18
73 30 77 82 25z m963 8 c24 -21 23 -28 -9 -45 -27 -13 -28 -13 -29 13 -1 14 1
20 3 14 6 -17 23 -16 23 1 0 8 -7 16 -15 20 -8 3 -15 10 -15 16 0 12 13 6 42
-19z m710 -104 c2 -41 -4 -68 -22 -106 -21 -45 -40 -66 -40 -43 0 10 29 182
36 212 9 39 23 4 26 -63z m3118 -132 c75 -55 104 -117 104 -220 0 -65 -5 -91
-27 -138 -14 -32 -33 -65 -42 -75 -139 -149 -256 -219 -441 -263 -249 -59
-440 35 -462 228 -6 52 5 113 20 113 12 0 97 -90 98 -102 0 -5 -9 -8 -20 -8
-11 0 -20 -4 -20 -10 0 -5 7 -10 15 -10 8 0 62 -19 121 -41 95 -37 113 -41
162 -35 92 11 194 60 262 127 83 82 110 139 110 231 -1 78 -26 169 -49 176 -9
3 -11 -2 -6 -17 3 -11 3 -26 -1 -32 -7 -11 -64 75 -64 98 0 16 40 22 122 18
59 -2 72 -6 118 -40z m-3162 -115 c9 -16 23 -20 61 -20 62 0 140 -15 188 -36
l38 -17 -35 -8 c-19 -5 -41 -6 -49 -3 -21 7 -185 -37 -194 -53 -11 -19 -27
-16 -28 5 0 13 -2 14 -6 2 -3 -8 -17 -25 -31 -38 -20 -19 -23 -20 -17 -5 22
53 35 95 41 142 7 56 13 61 32 31z m-458 -90 c8 -9 32 -29 53 -44 51 -39 40
-44 -20 -9 -26 15 -50 28 -53 29 -29 3 -70 17 -70 24 0 4 -9 6 -20 3 -30 -8
-24 5 12 27 30 18 34 18 58 3 14 -9 32 -24 40 -33z m-1954 -1 c104 -71 205
-99 361 -99 96 0 92 4 122 -120 39 -166 40 -154 -19 -210 l-52 -49 -28 29
c-49 50 -90 70 -145 70 -56 -1 -77 -10 -129 -58 -56 -51 -69 -85 -74 -192 -4
-80 -8 -99 -28 -126 -19 -24 -24 -43 -24 -89 0 -47 2 -55 14 -46 7 6 16 28 19
47 4 20 14 45 23 55 17 18 18 17 51 -31 35 -51 83 -90 69 -55 -74 193 -74 309
-1 382 52 52 105 43 162 -29 32 -40 33 -40 16 -76 -36 -81 -26 -147 33 -212
l34 -37 -20 -65 c-38 -118 -122 -173 -265 -173 -72 0 -86 3 -123 27 -85 57
-142 178 -150 319 -5 99 7 167 44 245 14 31 24 58 21 60 -3 3 -17 -2 -31 -12
-15 -9 -30 -14 -33 -10 -4 4 -9 49 -11 100 -5 114 21 228 73 322 20 35 38 64
41 64 3 0 25 -14 50 -31z m5776 -111 c57 -66 96 -114 121 -151 47 -69 113
-218 130 -292 19 -80 32 -185 24 -185 -3 0 -22 9 -41 21 -41 24 -45 17 -15
-26 74 -109 104 -210 103 -345 -1 -83 -5 -103 -32 -162 -16 -36 -47 -82 -68
-102 -46 -43 -127 -71 -189 -64 -44 5 -147 48 -168 70 -53 56 -88 108 -107
159 l-22 59 40 44 c27 29 42 56 47 85 4 22 10 41 14 41 4 0 48 -20 98 -45 105
-53 135 -88 152 -180 6 -32 11 -60 11 -62 0 -2 5 -1 10 2 6 3 10 40 10 81 l0
75 66 -7 c66 -7 66 -7 55 15 -17 32 -84 72 -130 78 -29 4 -53 17 -88 50 -55
50 -117 83 -172 90 -29 4 -49 16 -76 45 -45 46 -80 66 -160 88 l-60 17 -3 56
c-5 86 23 140 84 168 75 34 184 122 235 189 28 38 99 180 99 199 0 17 11 13
32 -11z m-756 -465 c70 -4 108 -2 163 12 40 9 73 16 75 14 9 -10 -8 -69 -19
-69 -7 0 -18 -21 -24 -48 -16 -64 -76 -132 -162 -183 -38 -23 -68 -43 -66 -45
6 -6 211 77 228 93 19 16 65 11 139 -15 61 -22 100 -48 133 -90 43 -56 32
-115 -29 -148 -28 -15 -36 -16 -61 -5 -41 19 -194 25 -298 11 -250 -32 -266
-28 -317 79 -46 97 -51 202 -13 309 15 42 33 87 41 99 13 21 15 21 66 7 29 -8
94 -17 144 -21z m-4326 -178 c0 -3 -4 -13 -9 -23 -6 -9 -21 -56 -35 -103 -36
-118 -91 -169 -183 -169 l-53 0 21 43 c12 23 30 67 39 97 14 47 20 55 46 61
38 7 80 31 124 68 33 29 50 37 50 26z m4633 -381 c68 -6 76 -9 81 -30 16 -60
73 -162 114 -203 43 -41 44 -44 27 -57 -44 -33 -168 -10 -246 45 -43 30 -99
139 -107 206 -5 44 -4 45 25 45 17 0 64 -3 106 -6z m-219 -16 c16 -56 44 -184
40 -187 -6 -7 -136 28 -151 41 -13 10 -40 63 -56 111 -8 21 3 26 76 37 78 11
87 11 91 -2z m-3504 -87 c24 -7 24 -8 4 -14 -12 -4 -35 -23 -53 -42 l-31 -34
-47 20 c-26 11 -69 25 -96 31 -29 6 -45 14 -40 19 21 21 211 35 263 20z m82
-63 c36 -28 60 -97 65 -186 5 -74 -1 -118 -36 -297 -98 -504 -113 -881 -40
-1052 15 -35 16 -43 4 -53 -19 -16 -32 -6 -59 48 -41 83 -51 145 -50 332 1
198 15 298 99 711 56 273 58 392 9 464 -13 20 -24 38 -24 40 0 9 16 5 32 -7z
m-34 -67 c51 -79 47 -138 -49 -615 -65 -326 -77 -448 -60 -603 18 -166 37
-250 67 -296 22 -33 25 -45 18 -76 -4 -20 -7 -48 -5 -63 1 -16 -2 -28 -7 -28
-5 0 -32 27 -59 60 -57 70 -78 127 -93 255 -26 230 -7 360 122 845 28 104 31
130 32 275 1 157 1 161 -26 206 -26 42 -26 47 -12 67 22 32 36 27 72 -27z
m-206 11 c89 -44 129 -110 128 -215 -1 -29 -2 -30 -14 -14 -8 10 -18 18 -23
17 -17 -2 -103 22 -109 31 -3 5 -13 9 -23 9 -10 0 -40 9 -67 21 -27 11 -58 24
-69 29 -57 24 -108 40 -128 41 -17 1 -15 3 11 12 22 7 36 7 40 1 4 -6 30 -18
57 -29 28 -10 53 -22 56 -28 4 -5 14 -6 25 0 25 13 50 10 47 -5 -3 -14 7 -15
27 -2 13 8 13 11 0 24 -22 21 -61 31 -58 14 2 -7 -7 -14 -19 -16 -22 -3 -28 5
-24 36 1 7 -11 12 -34 12 -22 0 -34 -4 -30 -10 3 -5 1 -10 -4 -10 -6 0 -11 20
-11 45 0 25 -2 45 -4 45 -18 0 -74 -33 -84 -49 -7 -12 -20 -21 -29 -21 -23 0
29 48 78 73 50 26 197 19 261 -11z m521 -42 c67 -42 91 -79 118 -180 20 -73
17 -245 -5 -310 -21 -63 -36 -85 -36 -53 0 11 -5 67 -11 124 -16 159 -63 328
-116 411 -38 61 -34 62 50 8z m-858 -80 c22 -7 55 -19 73 -26 18 -8 41 -14 50
-14 10 0 22 -4 27 -8 6 -5 37 -17 70 -27 33 -10 88 -31 122 -46 34 -15 72 -29
85 -31 16 -2 25 -12 30 -33 4 -16 2 -31 -3 -33 -5 -2 -9 -19 -9 -38 0 -20 -10
-77 -21 -128 -21 -88 -23 -93 -46 -88 -13 2 -22 10 -20 16 3 6 8 10 13 9 5 -1
9 19 9 43 0 24 -3 44 -7 44 -5 0 -8 -18 -8 -40 0 -47 -13 -56 -61 -42 -19 6
-26 11 -16 11 9 1 17 6 17 11 0 6 11 10 25 10 19 0 25 5 25 21 0 11 -4 17 -10
14 -5 -3 -10 -1 -10 4 0 13 -46 13 -75 2 -11 -5 -28 -4 -38 1 -10 5 -21 7 -25
4 -11 -12 10 -21 56 -22 68 -3 69 -3 49 -19 -11 -7 -29 -12 -40 -9 -50 9 -166
57 -171 70 -6 16 15 19 30 5 5 -5 23 -11 39 -13 24 -2 31 1 33 18 3 19 -3 22
-45 26 -55 5 -85 0 -77 -13 3 -5 -2 -9 -11 -9 -22 0 -135 49 -152 66 -8 8 -21
14 -29 14 -8 0 -32 6 -54 12 -43 14 -52 35 -25 62 8 8 15 19 15 24 0 5 14 28
30 50 17 23 30 44 30 48 0 3 7 13 16 21 13 14 17 14 25 2 5 -8 4 -15 -1 -17
-15 -6 -12 -33 7 -54 9 -11 11 -18 5 -18 -7 0 -12 -4 -12 -10 0 -23 39 -8 57
23 27 45 24 87 -6 98 -20 8 -23 7 -18 -11 6 -24 -5 -26 -23 -5 -10 12 -10 18
0 30 7 9 18 14 24 12 6 -2 29 -10 51 -17z m-178 -289 c10 -6 55 -25 101 -42
51 -20 82 -37 82 -47 0 -9 7 -13 20 -9 23 6 90 -12 90 -25 0 -10 -22 -10 -52
0 -17 6 -28 4 -40 -10 -17 -17 -16 -18 37 -18 30 0 55 5 55 10 0 6 9 10 19 10
11 0 23 -4 26 -10 3 -5 15 -10 26 -10 11 0 18 -4 15 -9 -3 -5 9 -11 27 -14 18
-3 53 -14 78 -25 24 -11 52 -22 62 -26 21 -7 21 -22 1 -94 -14 -53 -20 -71
-39 -127 -4 -11 -9 -44 -11 -74 -6 -84 -20 -85 -33 -2 -4 28 -4 51 0 51 4 0
10 -8 12 -17 2 -10 3 -7 1 7 -1 14 4 36 11 50 19 33 18 40 -1 40 -11 0 -14 4
-7 13 5 6 10 25 12 40 2 23 -1 28 -15 25 -14 -2 -21 -19 -30 -73 -7 -39 -8
-77 -4 -85 4 -8 10 -36 12 -61 l5 -46 -26 13 c-14 8 -34 14 -43 14 -10 0 -18
4 -18 9 0 5 -15 14 -32 21 -41 16 -123 53 -208 93 -36 17 -69 32 -75 32 -5 0
-8 9 -7 20 3 15 1 17 -10 8 -7 -7 -19 -8 -26 -4 -9 5 -5 11 13 21 44 24 31 40
-32 40 -38 0 -53 -3 -44 -9 8 -5 29 -7 48 -4 43 7 44 -12 1 -21 -29 -6 -66 7
-165 59 -5 2 30 141 38 150 5 5 9 15 9 23 0 7 11 38 25 68 14 30 25 59 25 64
0 10 32 1 67 -19z m1819 1 c1 -17 1 -18 -3 -3 -2 11 -14 22 -26 25 -18 3 -18
4 3 3 18 -2 25 -8 26 -25z m-93 11 c-9 -3 -13 -30 -13 -84 0 -43 -3 -79 -7
-79 -5 0 -8 38 -8 85 0 79 2 85 20 84 11 0 14 -3 8 -6z m104 -280 c-2 -38 -3
-7 -3 67 0 74 1 105 3 68 2 -38 2 -98 0 -135z m-1869 -124 c11 0 12 -2 5 -6
-7 -2 -13 -11 -13 -19 0 -8 -10 -14 -25 -14 -18 0 -25 5 -25 19 0 10 -11 26
-25 35 -28 18 -45 21 -45 6 0 -5 6 -10 14 -10 9 0 12 -7 9 -20 -3 -11 4 -30
16 -46 12 -16 21 -21 22 -13 0 10 2 11 6 2 2 -7 20 -13 39 -13 33 0 34 -1 34
-40 l0 -40 123 0 123 0 -4 -40 -4 -40 53 0 c30 0 65 3 77 7 22 5 20 8 -23 29
-55 29 -71 30 -84 7 -9 -16 -10 -16 -11 5 0 16 6 22 23 23 12 1 -2 7 -32 14
-30 8 -57 19 -61 26 -4 6 -12 9 -18 5 -6 -3 -24 5 -40 19 -19 16 -42 25 -63
25 -25 0 -30 3 -20 9 12 8 10 12 -12 22 -15 7 -27 16 -27 21 0 6 3 8 8 6 69
-33 127 -58 138 -58 8 0 14 -4 14 -10 0 -5 4 -10 10 -10 16 0 145 -62 148 -72
2 -4 10 -8 17 -8 8 0 29 -6 47 -14 18 -8 48 -21 66 -28 31 -12 32 -15 34 -73
l1 -60 7 60 c4 40 7 6 7 -105 1 -96 -2 -155 -7 -140 l-8 25 -1 -27 c-1 -14 5
-28 12 -31 6 -2 10 -7 7 -10 -8 -8 -100 24 -100 34 0 5 -4 9 -10 9 -5 0 -47
17 -92 39 -46 21 -100 44 -120 50 -20 7 -42 19 -48 27 -7 7 -19 14 -27 14 -8
0 -57 20 -107 45 -51 25 -98 45 -104 45 -7 0 -12 4 -12 9 0 5 -16 12 -35 15
-39 8 -39 9 -36 111 2 75 22 196 31 190 3 -2 4 9 2 26 l-4 29 67 -30 c37 -16
74 -30 83 -31z m1772 52 c0 -6 -17 -7 -37 -4 -52 8 -54 13 -5 13 23 0 42 -4
42 -9z m110 -11 c0 -5 -17 -9 -37 -9 -38 1 -38 1 -8 9 43 11 45 11 45 0z
m-2300 -69 c0 -5 -10 -12 -22 -14 -16 -3 -13 -5 11 -6 19 0 40 -9 47 -18 16
-21 19 -77 4 -68 -7 4 -9 -2 -5 -18 7 -25 5 -27 -45 -67 l-25 -19 31 -1 c22 0
33 -6 37 -19 3 -14 11 -17 32 -13 17 3 30 0 36 -9 7 -11 9 -9 9 6 1 16 4 15
17 -9 12 -24 13 -36 4 -66 -6 -21 -11 -46 -11 -56 0 -11 -9 -25 -20 -32 -11
-7 -20 -19 -20 -28 0 -12 -7 -10 -31 10 -18 15 -43 26 -60 26 -18 0 -29 5 -28
13 3 28 -1 100 -7 95 -4 -5 -34 -132 -34 -146 0 -2 15 0 34 3 50 10 74 -2 91
-42 17 -40 20 -113 5 -113 -5 0 -10 -9 -10 -20 0 -11 -9 -28 -20 -37 -11 -10
-20 -22 -20 -28 0 -21 -55 -65 -89 -71 -23 -5 -32 -4 -28 3 4 6 0 14 -9 17 -9
4 -13 2 -8 -5 4 -8 -1 -9 -15 -4 -29 9 -27 -13 2 -25 l22 -9 -22 0 c-12 -1
-24 3 -28 8 -3 5 -18 12 -35 16 -16 3 -43 22 -60 42 -28 32 -31 40 -26 84 6
54 -6 70 -34 44 -17 -15 -19 -15 -33 5 -12 17 -16 18 -26 6 -12 -15 -5 -46 11
-46 6 0 -1 -9 -15 -20 -20 -16 -37 -19 -76 -16 -60 4 -80 18 -74 50 3 13 -1
27 -7 31 -9 5 -10 1 -5 -14 11 -35 -10 -24 -23 12 -22 62 -11 157 19 157 6 0
3 -10 -5 -22 -16 -23 -22 -93 -8 -101 4 -3 5 15 3 39 -2 27 1 44 8 44 6 0 11
-17 11 -39 0 -22 4 -43 10 -46 5 -3 8 0 5 7 -9 28 -13 128 -4 134 5 3 9 0 9
-5 0 -6 9 -2 20 9 28 28 58 25 72 -5 13 -29 28 -33 29 -7 3 85 18 116 53 107
12 -3 16 -2 10 0 -6 3 -9 17 -6 30 4 23 2 24 -32 18 -32 -5 -37 -3 -46 23 -14
36 -6 84 20 117 17 21 25 24 70 19 28 -2 50 0 50 5 0 5 -14 7 -31 5 -22 -3
-30 -1 -25 7 10 16 42 14 84 -6 21 -9 38 -17 40 -18 1 -2 -3 -14 -9 -29 -9
-19 -9 -30 -2 -37 8 -8 13 -5 17 9 9 26 68 56 78 39 4 -7 8 2 8 21 0 29 -2 32
-19 22 -11 -5 -22 -6 -25 -2 -8 14 32 67 56 74 36 10 118 9 118 -1z m1659
-191 c135 -38 224 -96 299 -197 50 -66 80 -132 68 -151 -20 -33 -201 -109
-336 -142 -109 -27 -297 -38 -339 -20 -17 7 -31 15 -31 18 0 3 13 26 30 51 51
81 150 328 150 376 0 9 7 31 14 50 18 42 38 44 145 15z m-1361 -168 c-12 -2
-24 1 -26 7 -9 28 -22 6 -23 -41 -1 -45 -2 -49 -9 -23 -4 17 -8 46 -9 66 l-1
36 45 -21 c38 -17 42 -22 23 -24z m58 -11 c-3 -5 10 -12 29 -15 38 -7 166 -64
176 -78 3 -5 12 -10 20 -12 20 -3 163 -59 169 -66 3 -3 28 -14 55 -25 28 -10
60 -25 72 -32 12 -8 26 -12 31 -9 6 3 14 0 19 -7 15 -19 33 -77 24 -77 -5 0
-16 15 -25 33 l-16 32 7 -62 c3 -35 2 -63 -2 -63 -11 0 -165 50 -200 65 -16 7
-77 27 -135 45 -58 18 -112 36 -120 39 -8 4 -36 14 -62 22 -27 7 -48 19 -48
27 0 9 5 10 18 4 9 -5 35 -13 57 -16 22 -4 50 -14 63 -22 25 -16 31 -1 7 22
-9 9 -23 12 -40 8 -15 -4 -25 -2 -25 4 0 6 10 13 23 15 12 3 -5 4 -38 3 l-60
-1 0 46 0 46 -42 -5 -43 -5 0 41 c0 37 3 41 28 45 50 7 63 7 58 -2z m-96 -121
c0 -22 -4 -40 -10 -40 -5 0 -10 18 -10 40 0 22 5 40 10 40 6 0 10 -18 10 -40z
m70 -47 c13 3 17 0 13 -9 -3 -8 -8 -14 -12 -14 -14 0 -61 25 -61 33 0 4 9 3
21 -4 12 -6 29 -9 39 -6z m1729 -109 c1 -6 -41 -23 -91 -37 -51 -14 -131 -37
-178 -51 -47 -13 -155 -45 -240 -69 -85 -25 -195 -57 -244 -71 -49 -15 -91
-25 -93 -23 -1 2 -6 30 -9 63 -6 54 -4 61 19 83 28 25 27 25 127 -3 69 -20
217 -21 309 -1 84 18 219 68 316 119 63 34 70 35 77 19 3 -10 7 -23 7 -29z
m-1639 12 c14 -7 51 -21 82 -31 31 -10 55 -22 52 -27 -3 -4 -2 -8 3 -9 4 0 30
-2 57 -5 27 -2 52 -7 55 -11 6 -8 124 -50 289 -104 50 -16 92 -34 92 -40 0
-10 -28 -5 -95 17 -22 7 -69 20 -105 29 -147 37 -196 55 -347 127 -57 26 -106
48 -110 48 -5 0 -17 8 -28 16 -19 16 -19 16 5 9 14 -4 36 -13 50 -19z m2472
-31 c5 -31 30 -35 51 -8 21 27 44 29 75 7 42 -29 17 -114 -34 -114 -28 0 -32
-24 -6 -39 14 -9 14 -12 4 -19 -8 -5 -13 -12 -13 -16 4 -27 -2 -45 -19 -64
-25 -27 -41 -28 -71 -3 -21 17 -22 22 -11 41 16 26 7 57 -19 65 -10 4 -19 11
-19 17 0 7 -4 7 -13 -1 -10 -8 -17 -7 -25 1 -9 9 -12 9 -12 0 0 -7 5 -12 10
-12 6 0 10 -5 10 -11 0 -22 -44 -4 -50 21 -6 21 -1 30 26 50 19 14 37 36 40
50 11 49 13 52 34 45 11 -4 20 -3 19 2 -1 4 -1 12 0 18 2 15 19 -7 23 -30z
m-1916 -76 c12 -35 11 -36 -12 -31 -31 6 -37 17 -30 48 9 34 27 26 42 -17z"/>
<path d="M6060 8740 c14 -11 29 -20 34 -20 5 0 -3 9 -17 20 -14 11 -29 20 -34
20 -4 0 3 -9 17 -20z"/>
<path d="M5432 8289 c2 -6 8 -10 13 -10 5 0 11 4 13 10 2 6 -4 11 -13 11 -9 0
-15 -5 -13 -11z"/>
<path d="M5260 8280 c25 -8 87 -13 79 -6 -2 2 -26 6 -54 9 -34 4 -42 3 -25 -3z"/>
<path d="M4649 8158 c-42 -11 -169 -129 -169 -158 0 -15 24 -17 50 -3 48 25
67 17 79 -31 6 -25 11 -57 11 -73 0 -15 5 -35 10 -43 15 -23 12 130 -3 160 -8
17 -23 27 -45 30 l-33 5 38 36 c21 20 52 44 69 53 30 14 97 17 101 3 1 -4 -7
-27 -18 -52 -18 -41 -18 -47 -5 -66 14 -21 15 -20 22 17 3 22 17 53 30 71 13
17 24 34 24 36 0 10 -64 27 -94 26 -17 -1 -47 -5 -67 -11z"/>
<path d="M6325 8114 c-99 -14 -236 -69 -280 -112 -46 -45 -68 -77 -85 -128
-11 -30 -17 -54 -15 -54 3 0 29 24 58 53 58 56 66 63 114 90 95 53 201 77 371
84 83 3 152 9 152 13 0 8 -26 19 -89 39 -38 12 -180 22 -226 15z"/>
<path d="M5815 6863 c11 -10 25 -24 32 -31 7 -8 13 -9 17 -3 8 12 -32 51 -53
51 -12 0 -11 -4 4 -17z"/>
<path d="M6660 6772 c-36 -31 -86 -74 -110 -94 -47 -38 -81 -110 -115 -238
-20 -73 -32 -246 -17 -236 6 3 14 21 17 39 4 17 13 46 20 62 7 17 20 54 30 84
22 72 99 235 130 275 14 18 25 36 25 40 0 3 20 31 45 62 40 49 51 65 43 64 -2
-1 -32 -27 -68 -58z"/>
<path d="M7100 6363 c-64 -10 -163 -58 -210 -104 -8 -8 -39 -32 -67 -54 -45
-33 -53 -44 -53 -71 l0 -32 68 5 c71 4 132 19 272 64 47 15 104 32 128 39 23
6 42 15 42 20 0 6 -19 10 -42 10 -24 0 -48 4 -54 8 -14 9 -26 41 -19 52 5 9
142 -26 161 -41 21 -17 205 -16 188 1 -5 5 -43 19 -84 30 -41 11 -113 30 -160
44 -99 28 -136 34 -170 29z m34 -96 c-1 -65 -15 -77 -84 -77 -42 0 -59 4 -64
15 -7 19 -26 20 -26 1 0 -24 -51 -66 -81 -66 -40 0 -36 15 14 50 23 16 66 47
95 67 50 36 116 64 137 59 6 -2 10 -23 9 -49z"/>
<path d="M7516 6074 c-4 -14 -5 -28 -3 -31 3 -2 8 8 11 23 4 14 5 28 3 31 -3
2 -8 -8 -11 -23z"/>
<path d="M2645 4700 c-3 -11 -3 -30 0 -42 5 -18 4 -20 -4 -8 -6 8 -11 24 -12
35 -1 14 -3 16 -6 4 -2 -8 1 -27 6 -42 9 -24 13 -25 41 -16 25 9 30 16 29 42
0 32 0 32 -11 7 l-10 -25 -9 23 c-5 13 -7 28 -3 33 3 5 1 9 -5 9 -5 0 -13 -9
-16 -20z"/>
<path d="M7302 4445 c-24 -52 -15 -63 32 -45 19 7 26 17 26 35 0 14 -4 25 -9
25 -5 0 -16 2 -23 5 -9 4 -19 -4 -26 -20z"/>
<path d="M7165 4356 c-39 -14 -42 -19 -37 -61 5 -38 21 -47 29 -15 3 11 9 20
13 20 11 0 40 59 32 63 -4 2 -20 -1 -37 -7z"/>
<path d="M7406 4221 c-15 -15 -46 -34 -69 -41 -44 -14 -137 -99 -137 -126 0
-20 13 -17 38 9 51 53 72 70 108 88 22 11 63 37 93 59 53 39 54 40 25 40 -20
0 -39 -10 -58 -29z"/>
<path d="M7462 4124 c-5 -8 -48 -29 -97 -45 -48 -16 -95 -34 -104 -39 -30 -16
17 -24 72 -11 56 13 147 72 147 96 0 19 -7 19 -18 -1z"/>
<path d="M3530 2811 c13 -10 99 -16 89 -7 -2 2 -26 6 -54 10 -36 5 -46 4 -35
-3z"/>
<path d="M3530 2770 c0 -9 6 -17 13 -18 6 -1 26 -4 42 -7 24 -4 26 -3 10 4
-11 5 -15 10 -9 10 7 1 15 8 18 16 5 13 -2 15 -34 13 -29 -1 -40 -6 -40 -18z"/>
<path d="M3677 2756 c-3 -7 0 -30 7 -50 12 -36 13 -36 31 -17 17 20 17 21 -9
32 -14 7 -26 16 -26 21 0 5 10 2 22 -6 27 -19 45 -21 26 -3 -36 33 -45 38 -51
23z"/>
<path d="M3702 2625 c3 -3 19 -10 36 -14 23 -7 29 -6 26 3 -2 6 -19 13 -36 14
-18 2 -29 0 -26 -3z"/>
<path d="M3369 2613 c0 -5 -2 -16 -4 -26 -3 -16 2 -18 36 -15 21 2 39 0 39 -4
0 -5 5 -8 11 -8 5 0 8 4 4 9 -3 5 -1 12 5 16 15 9 12 25 -5 25 -8 0 -15 -5
-15 -11 0 -6 -5 -7 -12 -2 -7 4 -21 6 -32 4 -11 -1 -16 2 -12 8 4 6 2 11 -3
11 -6 0 -11 -3 -12 -7z"/>
<path d="M3505 2573 c-20 -15 -19 -15 5 -9 14 3 31 6 38 6 7 0 10 5 7 10 -9
14 -27 12 -50 -7z"/>
<path d="M3173 2550 c-1 -11 2 -18 8 -15 11 7 12 35 1 35 -4 0 -8 -9 -9 -20z"/>
<path d="M3184 2505 c-9 -18 -9 -25 0 -28 6 -2 1 -2 -11 0 -28 4 -29 -3 -3
-17 16 -9 24 -7 36 5 8 8 11 15 5 15 -5 0 -11 11 -13 25 l-3 25 -11 -25z"/>
<path d="M3322 2390 c10 -6 25 -7 40 -1 20 9 18 10 -17 10 -31 0 -36 -2 -23
-9z"/>
<path d="M3723 2285 c0 -22 2 -30 4 -17 2 12 2 30 0 40 -3 9 -5 -1 -4 -23z"/>
<path d="M3080 2349 c-13 -24 -4 -41 10 -19 10 16 13 40 5 40 -2 0 -9 -9 -15
-21z"/>
<path d="M3117 2363 c-4 -3 -7 -16 -6 -27 0 -12 3 -15 6 -8 2 6 9 12 14 12 6
0 7 -4 4 -10 -3 -5 -1 -10 4 -10 6 0 10 -3 9 -7 -3 -9 5 -13 25 -13 8 0 7 4
-3 10 -13 8 -12 10 3 10 20 0 24 -36 5 -43 -29 -12 14 -23 59 -17 25 4 54 5
63 3 10 -3 21 1 25 8 9 14 -33 49 -51 42 -7 -2 -15 0 -19 6 -3 6 -18 9 -33 6
-15 -3 -21 -2 -14 1 17 8 5 25 -13 18 -8 -3 -22 1 -30 10 -17 17 -37 21 -48 9z"/>
<path d="M3026 2208 c-17 -81 -18 -98 -7 -98 6 0 11 8 12 18 0 9 2 38 5 65 5
54 -1 63 -10 15z"/>
<path d="M3593 2180 c2 -8 16 -16 33 -17 25 -1 26 0 4 4 -14 3 -29 10 -33 17
-6 7 -7 6 -4 -4z"/>
<path d="M3687 2153 c-4 -3 -6 -22 -6 -42 l1 -36 8 40 c8 42 8 49 -3 38z"/>
<path d="M3301 1991 c-20 -13 4 -24 37 -17 15 3 21 3 14 0 -25 -11 35 -52 85
-59 27 -3 56 -8 66 -10 9 -2 17 1 17 6 0 5 -19 9 -43 9 l-43 0 4 40 4 40 -63
0 c-35 0 -70 -4 -78 -9z"/>
<path d="M2952 1890 c0 -19 2 -27 5 -17 2 9 2 25 0 35 -3 9 -5 1 -5 -18z"/>
<path d="M2945 1808 c-4 -18 -2 -44 3 -58 8 -21 9 -15 11 33 1 63 -5 74 -14
25z"/>
<path d="M3145 1690 c4 -6 -11 -10 -37 -10 -31 0 -39 -3 -28 -10 8 -5 25 -10
36 -10 12 0 24 -7 28 -15 3 -8 17 -15 31 -15 22 0 25 4 25 35 0 32 -2 35 -31
35 -17 0 -28 -4 -24 -10z"/>
<path d="M3549 1635 c-6 -40 -4 -53 7 -43 3 3 4 23 2 44 l-3 39 -6 -40z"/>
<path d="M3327 1584 c-22 -12 -31 -13 -43 -3 -12 10 -13 9 -8 -5 4 -11 18 -16
45 -16 32 0 39 3 39 20 0 11 -1 20 -2 20 -2 -1 -16 -8 -31 -16z"/>
<path d="M3488 1553 c-10 -2 -18 -9 -18 -14 0 -6 7 -6 19 0 10 6 22 7 26 3 5
-4 5 -1 1 6 -4 6 -8 11 -9 11 -1 -1 -10 -3 -19 -6z"/>
<path d="M3455 1520 l-30 -7 30 -8 c17 -4 36 -12 43 -18 16 -13 24 -5 16 16
-7 20 -22 25 -59 17z"/>
<path d="M2297 1819 c6 -59 10 -69 25 -68 10 0 10 2 1 6 -7 2 -13 21 -13 41 0
21 -4 44 -9 51 -6 10 -8 -1 -4 -30z"/>
<path d="M2272 1788 c-2 -43 11 -69 26 -53 3 3 1 9 -5 13 -6 4 -13 25 -16 47
l-4 40 -1 -47z"/>
<path d="M2655 1817 c10 -8 25 -12 33 -10 16 7 14 9 -23 17 -28 7 -29 6 -10
-7z"/>
<path d="M2306 1645 c-3 -9 -6 -24 -5 -33 0 -9 5 -4 10 12 9 32 6 48 -5 21z"/>
<path d="M2601 1633 c-1 -17 -5 -33 -11 -35 -6 -2 -6 -9 0 -17 6 -11 10 -5 15
22 4 20 5 42 2 49 -3 7 -6 -1 -6 -19z"/>
<path d="M2671 1623 c-1 -40 1 -43 24 -43 14 0 25 4 25 9 0 5 -8 8 -17 7 -13
-1 -20 9 -24 34 l-6 35 -2 -42z"/>
<path d="M2783 1603 c-7 -2 -13 -11 -13 -19 0 -8 -4 -14 -10 -14 -5 0 -10 5
-10 10 0 6 -5 10 -12 10 -8 0 -7 -6 4 -16 9 -9 21 -13 27 -10 10 6 36 47 29
45 -2 0 -9 -3 -15 -6z"/>
<path d="M2302 1560 c0 -19 2 -27 5 -17 2 9 2 25 0 35 -3 9 -5 1 -5 -18z"/>
<path d="M2720 1418 c0 -36 4 -35 14 5 4 16 2 27 -4 27 -5 0 -10 -14 -10 -32z"/>
<path d="M2336 1415 c-3 -9 0 -15 9 -15 8 0 15 7 15 15 0 8 -4 15 -9 15 -5 0
-11 -7 -15 -15z"/>
<path d="M2698 1363 c-21 -5 -32 -33 -13 -33 8 0 19 9 25 20 6 11 9 19 8 19
-2 -1 -10 -3 -20 -6z"/>
<path d="M2442 1260 c13 -20 28 -27 28 -12 0 10 -22 32 -32 32 -5 0 -3 -9 4
-20z"/>
<path d="M3082 1540 c13 -20 29 -26 41 -14 9 9 -19 34 -37 34 -14 0 -14 -3 -4
-20z"/>
<path d="M3200 1466 c0 -9 6 -17 13 -18 31 -3 140 -4 123 0 -11 2 -27 11 -35
20 -15 14 -16 14 -20 -3 -1 -10 -6 -13 -10 -8 -3 6 -21 14 -38 18 -26 5 -33 3
-33 -9z"/>
<path d="M3360 1401 c0 -31 4 -41 20 -46 11 -3 20 -11 20 -17 0 -5 -6 -8 -12
-5 -7 2 -22 1 -33 -4 -15 -6 -11 -8 18 -8 23 -1 45 -9 57 -21 12 -12 33 -20
55 -20 19 0 35 -4 35 -10 0 -5 11 -10 24 -10 14 0 28 -4 31 -10 10 -17 25 -11
25 10 0 17 -7 20 -40 20 -40 0 -40 0 -40 39 0 29 5 41 18 45 9 2 -1 3 -23 0
-30 -3 -35 -2 -20 5 17 8 18 10 3 10 -10 1 -21 0 -24 -1 -3 -2 -10 5 -15 15
-6 9 -14 15 -18 12 -5 -2 -16 4 -26 15 -10 11 -26 20 -37 20 -14 0 -18 -8 -18
-39z"/>
<path d="M3340 1233 c8 -3 18 -11 22 -17 4 -6 10 -7 15 -3 9 10 -16 27 -37 26
-13 -1 -13 -1 0 -6z"/>
<path d="M5696 1228 l-17 -33 20 24 c18 20 27 41 18 41 -1 0 -11 -15 -21 -32z"/>
<path d="M6721 4074 c-81 -22 -191 -78 -237 -121 -57 -52 -101 -124 -126 -206
-32 -107 -23 -262 30 -487 22 -96 47 -205 55 -242 l15 -68 -37 -21 c-36 -22
-91 -75 -118 -116 -17 -26 -35 -29 -55 -10 -7 7 -29 24 -48 37 -19 13 -37 27
-40 30 -8 10 -54 40 -61 40 -4 0 -13 -33 -19 -72 -7 -40 -21 -100 -31 -133
-10 -32 -16 -61 -14 -63 2 -3 -2 -17 -11 -33 -8 -16 -28 -65 -44 -108 -34 -92
-35 -89 65 -126 37 -13 70 -26 73 -29 3 -3 7 -29 9 -58 10 -137 59 -223 157
-277 48 -26 78 -68 53 -75 -6 -2 -29 -9 -50 -15 -35 -12 -40 -11 -68 13 -47
40 -100 32 -126 -18 -44 -87 -68 -116 -93 -113 -21 2 -25 7 -23 32 2 17 -1 42
-6 57 -9 24 -6 30 22 50 47 33 56 48 57 94 0 56 -25 79 -77 69 -21 -3 -66 -9
-101 -12 -60 -5 -63 -6 -81 -41 -18 -36 -33 -52 -93 -106 -28 -25 -35 -62 -22
-113 5 -19 13 -23 50 -23 40 0 44 -2 44 -24 0 -25 -23 -35 -135 -62 -40 -9
-105 -44 -127 -68 -23 -24 -23 -47 1 -74 21 -25 49 -34 281 -92 91 -23 167
-43 169 -45 2 -2 0 -24 -3 -47 -5 -32 -13 -46 -29 -53 -53 -23 -2 -65 104 -85
72 -14 363 -14 441 0 142 26 165 60 65 95 -57 19 -68 33 -44 53 6 5 71 13 142
16 324 17 612 74 695 136 l24 18 -77 75 c-42 40 -77 77 -77 81 0 4 27 32 60
62 67 62 143 172 176 254 13 30 45 143 73 250 28 107 57 218 64 247 l14 52
-30 7 c-16 3 -33 2 -37 -2 -4 -5 -18 -56 -30 -114 -45 -210 -117 -396 -205
-534 -48 -76 -153 -178 -203 -198 -23 -9 -42 -16 -42 -14 0 1 27 30 60 64 75
79 110 130 159 233 76 160 116 279 156 469 27 131 30 166 15 175 -12 8 -15 1
-30 -100 -24 -163 -83 -351 -172 -545 -47 -104 -165 -243 -264 -310 -35 -25
-62 -35 -100 -38 -53 -4 -82 11 -43 23 89 28 239 157 317 272 55 81 128 228
152 307 29 93 67 271 75 347 7 64 6 66 -16 72 -13 4 -36 7 -51 7 -46 0 -132
38 -166 73 -18 18 -45 63 -60 100 -22 51 -39 74 -71 97 -23 17 -56 51 -74 76
-35 49 -77 155 -77 193 l0 24 -92 -6 c-87 -5 -225 -42 -252 -68 -6 -5 -18 -9
-27 -9 -49 0 -88 308 -58 452 18 83 71 188 123 240 76 77 137 112 279 162 10
3 17 12 15 19 -6 18 -55 18 -117 1z m-28 -1189 c54 -22 90 -58 122 -122 28
-55 30 -64 29 -178 0 -111 -3 -126 -33 -202 -63 -160 -156 -260 -289 -312
-126 -50 -233 -13 -293 103 -22 40 -38 146 -23 146 22 0 164 -34 164 -39 0 -4
-25 -21 -55 -39 -30 -18 -55 -36 -55 -39 0 -14 134 8 165 27 47 29 144 136
184 204 28 47 35 70 39 130 6 102 -8 143 -72 207 -53 54 -68 32 -30 -43 13
-26 19 -68 9 -68 -2 0 -39 15 -82 34 -43 18 -86 36 -95 39 -10 4 -18 13 -18
21 0 23 87 106 133 127 51 23 150 25 200 4z m-602 -130 c-12 -25 -21 -53 -22
-62 0 -10 -3 -13 -5 -6 -3 7 5 40 17 74 13 34 25 57 27 50 2 -6 -6 -32 -17
-56z m1084 -81 c18 -7 45 -54 45 -79 0 -25 -38 -55 -70 -55 -39 0 -70 32 -70
70 0 23 7 35 33 50 35 22 38 23 62 14z m-50 -187 c16 -4 14 -5 -6 -6 -15 -1
-34 8 -45 21 l-19 22 25 -16 c14 -9 35 -18 45 -21z m-20 -197 c25 -28 25 -85
0 -105 -48 -35 -115 -3 -115 55 0 61 76 93 115 50z m-1237 -247 c-2 -12 6 -19
29 -24 29 -6 31 -5 22 12 -7 15 -6 19 6 19 22 0 30 -4 28 -12 -2 -5 2 -8 7 -8
6 0 10 7 10 16 0 13 3 14 14 4 8 -6 17 -19 19 -28 2 -9 3 -5 1 11 -2 15 0 27
5 27 16 0 19 -37 5 -61 -7 -13 -13 -18 -14 -11 0 17 -20 15 -20 -3 0 -8 -4
-15 -10 -15 -5 0 -10 5 -10 11 0 5 -4 7 -10 4 -5 -3 -10 -19 -10 -35 0 -16 -4
-31 -9 -34 -5 -4 -7 3 -4 14 3 11 1 20 -4 20 -6 0 -10 -28 -9 -64 1 -51 4 -62
14 -54 7 6 15 8 18 5 3 -3 -7 -13 -23 -23 -15 -9 -37 -27 -48 -39 -15 -17 -28
-22 -52 -18 -29 5 -31 7 -22 30 13 36 12 42 -16 49 -23 6 -29 17 -27 54 0 10
-6 7 -19 -9 -14 -17 -16 -26 -8 -31 7 -5 8 -10 1 -14 -21 -13 -21 28 -1 61 16
25 24 31 30 22 4 -7 6 5 3 27 -4 32 0 45 22 69 24 29 25 29 19 5 -7 -23 -7
-23 9 -7 10 9 14 21 11 27 -3 5 -1 10 5 10 8 0 10 -9 5 -27 -5 -23 -4 -25 9
-14 9 7 13 17 10 22 -3 5 -2 14 1 19 10 15 16 12 13 -7z m337 -143 c8 -16 15
-36 15 -44 0 -8 9 -18 20 -21 24 -8 60 2 60 17 0 6 -6 6 -15 -2 -12 -10 -15
-10 -15 4 0 10 9 16 23 17 19 1 19 2 3 6 -14 4 -16 7 -6 13 29 18 97 -21 114
-65 9 -23 -11 -85 -35 -108 -28 -26 -24 -53 10 -68 32 -14 44 -38 30 -60 -12
-20 -1 -30 27 -23 24 6 35 -10 12 -19 -7 -2 -10 -8 -5 -12 4 -5 13 0 21 10 12
17 13 16 19 -14 7 -36 -1 -91 -14 -91 -5 0 -9 -8 -9 -19 0 -27 -57 -78 -96
-85 -42 -8 -94 16 -94 44 0 10 5 31 11 47 6 15 8 43 4 61 l-6 33 -27 -53 c-23
-46 -31 -53 -59 -56 -32 -3 -45 -24 -23 -37 12 -7 -9 -56 -30 -70 -34 -21
-120 -10 -120 17 0 9 3 9 12 0 7 -7 19 -12 28 -12 8 0 0 9 -18 20 -18 11 -37
30 -42 43 -8 18 -9 16 -5 -13 5 -34 5 -34 -6 -7 -15 39 -4 93 21 100 25 7 16
37 -11 37 -24 0 -43 44 -35 83 7 33 -17 38 -34 7 -6 -11 -16 -17 -25 -13 -13
5 -13 7 2 20 16 13 16 14 -10 8 -19 -4 -26 -2 -22 4 3 7 0 8 -9 5 -30 -11 -20
67 14 118 49 73 95 69 107 -9 5 -30 8 -34 14 -18 7 17 8 18 8 3 2 -35 28 -18
35 21 3 22 10 41 15 43 5 1 12 17 15 33 6 28 6 28 -4 6 -15 -35 -25 -17 -10
19 10 24 17 29 34 25 19 -5 19 -4 4 7 -16 11 -16 14 0 40 28 47 84 52 107 8z
m-255 -35 c0 -8 -4 -15 -10 -15 -5 0 -10 7 -10 15 0 8 5 15 10 15 6 0 10 -7
10 -15z m500 -181 c12 -31 12 -34 1 -34 -5 0 -11 8 -15 18 -3 9 -9 23 -12 30
-3 6 -1 12 5 12 7 0 16 -12 21 -26z"/>
<path d="M7127 2634 c-15 -16 -7 -53 14 -59 27 -9 42 6 37 36 -3 24 -36 38
-51 23z"/>
<path d="M7035 2264 c-25 -25 -15 -49 23 -52 28 -3 32 0 32 20 0 23 -16 48
-31 48 -4 0 -15 -7 -24 -16z"/>
<path d="M5830 1786 c0 -8 5 -18 10 -21 6 -3 10 1 10 9 0 8 -4 18 -10 21 -5 3
-10 -1 -10 -9z"/>
<path d="M6150 1903 c0 -8 5 -13 12 -11 18 6 21 25 3 25 -8 0 -15 -7 -15 -14z"/>
<path d="M6112 1890 c-7 -11 -9 -20 -4 -20 10 0 32 22 32 32 0 15 -15 8 -28
-12z"/>
<path d="M5891 1704 c-12 -16 -20 -40 -20 -58 l2 -31 4 30 c3 17 10 37 17 45
7 8 16 21 20 28 13 21 -2 13 -23 -14z"/>
<path d="M6370 1615 c0 -8 9 -15 20 -15 13 0 18 5 14 15 -4 8 -12 15 -20 15
-8 0 -14 -7 -14 -15z"/>
<path d="M6423 1406 c-13 -13 -20 -26 -16 -29 3 -4 15 5 25 19 26 32 19 39 -9
10z"/>
<path d="M1970 2332 c-19 -10 -39 -28 -44 -38 -5 -11 -25 -25 -45 -31 -30 -10
-39 -9 -54 4 -44 40 -106 -52 -78 -114 12 -25 10 -29 -16 -50 -15 -13 -31 -23
-35 -23 -11 0 -10 -82 1 -99 5 -7 31 -19 57 -26 48 -12 49 -13 58 -58 9 -53
45 -97 77 -97 24 0 89 37 89 51 0 5 8 9 18 9 10 0 27 7 38 15 10 8 32 15 47
15 55 0 95 28 123 86 33 67 27 94 -28 131 -49 33 -68 78 -49 119 9 21 8 32 -5
60 -19 39 -34 49 -84 59 -25 4 -45 0 -70 -13z m24 -44 c-6 -21 -6 -21 11 -4
13 13 27 16 49 12 49 -10 57 -24 40 -71 -18 -52 -18 -75 1 -75 8 0 15 -4 15
-10 0 -5 -3 -9 -7 -7 -9 2 -13 -6 -13 -29 0 -8 5 -12 10 -9 6 4 8 11 5 16 -4
5 -1 9 4 9 6 0 11 -4 11 -10 0 -5 9 -10 19 -10 11 0 23 -5 27 -12 5 -7 3 -8
-6 -3 -9 6 -11 4 -4 -6 4 -8 7 -26 5 -41 -1 -15 4 -30 13 -35 13 -7 13 -10 -1
-28 -15 -20 -15 -20 -10 3 3 12 2 22 -3 22 -4 0 -11 -11 -14 -25 -6 -23 -52
-53 -63 -41 -2 2 -7 29 -10 60 -5 45 -9 56 -22 54 -12 -2 -17 -20 -21 -75 -5
-66 -11 -87 -28 -88 -27 -2 -53 -19 -48 -31 3 -8 -1 -14 -10 -14 -8 0 -12 5
-9 10 3 6 -1 10 -9 10 -9 0 -16 -4 -16 -10 0 -22 -28 -8 -40 20 -7 17 -16 30
-21 30 -5 0 -9 13 -9 30 0 18 -7 33 -18 39 -10 5 -25 29 -32 52 -12 36 -12 43
1 53 19 13 8 64 -16 82 -13 10 -14 17 -3 50 16 47 40 51 52 8 l9 -31 34 34
c19 18 42 33 51 32 14 0 13 -2 -3 -9 -16 -7 -14 -9 15 -9 34 -1 70 -27 70 -52
0 -5 5 -7 10 -4 20 12 10 57 -17 81 -22 19 -25 25 -14 38 18 22 24 20 15 -6z
m-211 -205 c-7 -3 -13 -12 -13 -21 0 -14 -2 -15 -10 -2 -5 8 -12 11 -16 7 -4
-4 -2 -13 4 -19 15 -15 16 -28 2 -28 -14 0 -25 51 -12 59 6 4 22 7 34 8 13 0
17 -1 11 -4z m407 -42 c0 -11 -4 -23 -10 -26 -6 -4 -10 5 -10 19 0 14 5 26 10
26 6 0 10 -9 10 -19z"/>
<path d="M1920 2181 c0 -12 5 -21 10 -21 6 0 10 6 10 14 0 8 -4 18 -10 21 -5
3 -10 -3 -10 -14z"/>
<path d="M1801 2048 c-1 -23 9 -48 21 -48 7 0 7 4 0 13 -5 6 -12 21 -15 32 -3
15 -5 16 -6 3z"/>
<path d="M2300 1125 c-164 -28 -219 -84 -124 -127 74 -32 186 -47 361 -48 214
0 377 32 403 79 12 23 3 34 -46 59 -95 48 -413 68 -594 37z"/>
</g>
</svg>
